Coordinates
version=1
nRows=29
nColumns=38
inDegrees=no

Units are S.I. units (second, meters, Newtons, ...)
If the header above contains a line with 'inDegrees', this indicates whether rotational values are in degrees (yes) or radians (no).

endheader
time	pelvis_tilt	pelvis_list	pelvis_rotation	pelvis_tx	pelvis_ty	pelvis_tz	hip_flexion_r	hip_adduction_r	hip_rotation_r	knee_angle_r	ankle_angle_r	subtalar_angle_r	mtp_angle_r	hip_flexion_l	hip_adduction_l	hip_rotation_l	knee_angle_l	ankle_angle_l	subtalar_angle_l	mtp_angle_l	lumbar_extension	lumbar_bending	lumbar_rotation	arm_flex_r	arm_add_r	arm_rot_r	elbow_flex_r	pro_sup_r	wrist_flex_r	wrist_dev_r	arm_flex_l	arm_add_l	arm_rot_l	elbow_flex_l	pro_sup_l	wrist_flex_l	wrist_dev_l
1.01	-0.178836	0.0274418	0.00254342	0.983109	0.974701	-0.351784	0.895234	0.0261504	0.0564475	-1.96164	0.183588	0.0519412	3.09509e-06	0.0499318	0.106458	-0.127319	-0.635557	0.231405	0.0499489	-5.31964e-05	-0.0373789	-0.0324457	-0.0674729	-0.733082	-0.339454	-0.235913	1.66868	1.84339	-0.00659817	0.0450029	-0.346799	-0.172441	-0.181628	2.0879	1.80668	0.0627007	0.0400454
1.02	-0.180119	0.00671263	-0.014843	0.986557	0.97974	-0.350785	0.93667	0.0533704	0.044285	-1.87714	0.189434	0.0519412	3.09509e-06	-0.0292737	0.0824098	-0.133067	-0.565534	0.122056	0.0499489	-5.31964e-05	-0.0270394	-0.00528447	-0.0707745	-0.779173	-0.33926	-0.251668	1.70037	1.82591	-0.00659817	0.0450029	-0.348936	-0.159846	-0.186263	2.154	1.79332	0.0627007	0.0400454
1.03	-0.182361	-0.0121947	-0.0317038	0.990002	0.984619	-0.349605	0.969967	0.0778218	0.0298519	-1.78003	0.194379	0.0519412	3.09509e-06	-0.10007	0.061587	-0.137443	-0.505009	0.00557591	0.0499489	-5.31964e-05	-0.0167441	0.0191809	-0.0735375	-0.822582	-0.336823	-0.267277	1.73076	1.80964	-0.00659817	0.0450029	-0.3522	-0.150649	-0.189081	2.21909	1.78457	0.0627007	0.0400454
1.04	-0.185019	-0.02801	-0.047593	0.993161	0.989189	-0.348323	0.994347	0.099088	0.0159178	-1.671	0.197882	0.0519412	3.09509e-06	-0.160593	0.0454076	-0.138754	-0.459165	-0.110226	0.0499489	-5.31964e-05	-0.00753142	0.0395872	-0.0761211	-0.861651	-0.332	-0.281969	1.75871	1.79336	-0.00659817	0.0450029	-0.355166	-0.14554	-0.189637	2.28056	1.78108	0.0627007	0.0400454
1.05	-0.187513	-0.0401133	-0.062192	0.995825	0.993332	-0.347043	1.00899	0.117317	0.00512442	-1.55086	0.198984	0.0519412	3.09509e-06	-0.20975	0.0345506	-0.136002	-0.432399	-0.217482	0.0499489	-5.31964e-05	-0.000443164	0.0551954	-0.0786677	-0.894947	-0.324911	-0.295159	1.78358	1.77676	-0.00659817	0.0450029	-0.356789	-0.144617	-0.187728	2.33599	1.78291	0.0627007	0.0400454
1.06	-0.189218	-0.0485091	-0.0753466	0.997873	0.996973	-0.345859	1.01321	0.133089	-0.000479367	-1.42083	0.19645	0.0519412	3.09509e-06	-0.247222	0.028754	-0.129341	-0.427916	-0.309267	0.0499489	-5.31964e-05	0.00364525	0.066055	-0.0810624	-0.921428	-0.315937	-0.306545	1.80522	1.76041	-0.00659817	0.0450029	-0.356467	-0.147403	-0.183334	2.38324	1.78948	0.0627007	0.0400454
1.07	-0.189569	-0.0537987	-0.0870763	0.999288	1.00006	-0.344818	1.00667	0.147171	0.000155037	-1.28291	0.18901	0.0519412	3.09509e-06	-0.273374	0.0268038	-0.120329	-0.447479	-0.380584	0.0499489	-5.31964e-05	0.00413879	0.0729487	-0.0829592	-0.940538	-0.305713	-0.316102	1.82389	1.74536	-0.00659817	0.0450029	-0.354059	-0.152951	-0.176594	2.42039	1.79979	0.0627007	0.0400454
1.08	-0.188183	-0.0570283	-0.097543	1.00014	1.00255	-0.343918	0.989611	0.160265	0.00681693	-1.14017	0.175696	0.0519412	3.09509e-06	-0.28906	0.0267027	-0.111794	-0.491341	-0.429064	0.0499489	-5.31964e-05	0.00080056	0.0771813	-0.0838643	-0.95222	-0.295095	-0.323996	1.84015	1.73267	-0.00659817	0.0450029	-0.349856	-0.160016	-0.167806	2.44593	1.81257	0.0627007	0.0400454
1.09	-0.184948	-0.0593737	-0.107003	1.00056	1.00438	-0.343126	0.963082	0.172831	0.0180137	-0.996948	0.156207	0.0519412	3.09509e-06	-0.295385	0.0259893	-0.107244	-0.558341	-0.455098	0.0499489	-5.31964e-05	-0.00621281	0.0802966	-0.0832386	-0.956837	-0.285094	-0.33047	1.85469	1.72309	-0.00659817	0.0450029	-0.344488	-0.167275	-0.157417	2.45878	1.8265	0.0627007	0.0400454
1.1	-0.180015	-0.0618879	-0.115756	1.00067	1.00546	-0.342409	0.928978	0.185017	0.0312348	-0.858803	0.131196	0.0519412	3.09509e-06	-0.293465	0.0222187	-0.10992	-0.646119	-0.461283	0.0499489	-5.31964e-05	-0.0163621	0.0837319	-0.0805846	-0.95504	-0.27677	-0.335729	1.86819	1.71687	-0.00659817	0.0450029	-0.338786	-0.173544	-0.145981	2.45839	1.84046	0.0627007	0.0400454
1.11	-0.173776	-0.0653052	-0.124107	1.00058	1.0057	-0.341762	0.889949	0.196699	0.0434717	-0.732145	0.102357	0.0519412	3.09509e-06	-0.284268	0.0134901	-0.121814	-0.751392	-0.451388	0.0499489	-5.31964e-05	-0.0288168	0.0885197	-0.0754947	-0.94758	-0.271109	-0.339841	1.88115	1.71379	-0.00659817	0.0450029	-0.333609	-0.177955	-0.13407	2.44479	1.85368	0.0627007	0.0400454
1.12	-0.166794	-0.0699246	-0.132331	1.00031	1.00503	-0.341216	0.849108	0.207609	0.0519006	-0.623608	0.0722991	0.0519412	3.09509e-06	-0.268514	-0.00112596	-0.143013	-0.870295	-0.429231	0.0499489	-5.31964e-05	-0.0426028	0.0951108	-0.0676691	-0.935119	-0.268906	-0.342691	1.8937	1.7133	-0.00659817	0.0450029	-0.329666	-0.180058	-0.12217	2.4185	1.86589	0.0627007	0.0400454
1.13	-0.15972	-0.0756135	-0.14066	0.99987	1.0034	-0.340825	0.809599	0.21752	0.0546241	-0.539246	0.0442717	0.0519412	3.09509e-06	-0.246631	-0.0214052	-0.171629	-0.998723	-0.397976	0.0499489	-5.31964e-05	-0.0567838	0.10336	-0.0569074	-0.918075	-0.270678	-0.343965	1.90553	1.71471	-0.00659817	0.0450029	-0.327396	-0.179828	-0.110596	2.38045	1.87732	0.0627007	0.0400454
1.14	-0.15316	-0.0818144	-0.149291	0.999223	1.0008	-0.340625	0.774134	0.22646	0.0512592	-0.48373	0.0218711	0.0519412	3.09509e-06	-0.218757	-0.0461205	-0.204323	-1.13263	-0.359974	0.0499489	-5.31964e-05	-0.0706228	0.112708	-0.043091	-0.896524	-0.276637	-0.343187	1.91588	1.71742	-0.00659817	0.0450029	-0.326928	-0.17757	-0.0994663	2.33182	1.88865	0.0627007	0.0400454
1.15	-0.147505	-0.0879551	-0.158405	0.998311	0.997202	-0.340595	0.744619	0.234763	0.0431513	-0.459664	0.00876669	0.0519412	3.09509e-06	-0.184762	-0.0733567	-0.23715	-1.26826	-0.317023	0.0499489	-5.31964e-05	-0.0836545	0.122307	-0.0261833	-0.870191	-0.286713	-0.339777	1.92363	1.72103	-0.00659817	0.0450029	-0.328142	-0.173783	-0.0887636	2.27403	1.90065	0.0627007	0.0400454
1.16	-0.142952	-0.0935162	-0.168153	0.997083	0.992624	-0.340668	0.721857	0.243046	0.0330361	-0.46711	0.00834059	0.0519412	3.09509e-06	-0.144357	-0.100988	-0.266382	-1.40223	-0.27071	0.0499489	-5.31964e-05	-0.0957572	0.13128	-0.00625132	-0.838528	-0.300587	-0.333124	1.92753	1.72534	-0.00659817	0.0450029	-0.330798	-0.169015	-0.0784469	2.2087	1.91386	0.0627007	0.0400454
1.17	-0.139496	-0.0981252	-0.178624	0.995482	0.987167	-0.340775	0.705409	0.252001	0.0242732	-0.503319	0.0231342	0.0519412	3.09509e-06	-0.0972141	-0.127066	-0.289048	-1.53159	-0.22264	0.0499489	-5.31964e-05	-0.107108	0.138877	0.0164752	-0.800853	-0.317736	-0.322663	1.92641	1.73024	-0.00659817	0.0450029	-0.334703	-0.16376	-0.0685836	2.13774	1.9283	0.0627007	0.0400454
1.18	-0.136946	-0.101539	-0.189778	0.993445	0.98116	-0.340878	0.693666	0.262062	0.0199059	-0.562847	0.0542421	0.0519412	3.09509e-06	-0.0430753	-0.150082	-0.303246	-1.65373	-0.174455	0.0499489	-5.31964e-05	-0.118059	0.144517	0.0415245	-0.756554	-0.33744	-0.307964	1.91956	1.73567	-0.00659817	0.0450029	-0.339855	-0.158436	-0.0594401	2.06345	1.94335	0.0627007	0.0400454
1.19	-0.134972	-0.103592	-0.201371	0.990933	0.97513	-0.340976	0.684106	0.2731	0.0219534	-0.638065	0.100855	0.0519412	3.09509e-06	0.0181562	-0.169072	-0.308168	-1.76631	-0.127698	0.0499489	-5.31964e-05	-0.128977	0.14777	0.0681202	-0.705317	-0.358788	-0.28885	1.90697	1.74147	-0.00659817	0.0450029	-0.346525	-0.153417	-0.0514863	1.98855	1.95776	0.0627007	0.0400454
1.2	-0.133222	-0.104153	-0.212905	0.987993	0.969535	-0.341093	0.673745	0.284302	0.031139	-0.720141	0.160238	0.0519412	3.09509e-06	0.0863409	-0.183606	-0.303987	-1.8672	-0.0836519	0.0499489	-5.31964e-05	-0.140073	0.148304	0.0951981	-0.647372	-0.380677	-0.265529	1.88958	1.74737	-0.00659817	0.0450029	-0.355254	-0.149087	-0.0452978	1.91614	1.96994	0.0627007	0.0400454
1.21	-0.131468	-0.103025	-0.223649	0.984691	0.964611	-0.341255	0.659713	0.294294	0.0469848	-0.800294	0.228175	0.0519412	3.09509e-06	0.161038	-0.193705	-0.291688	-1.95443	-0.0432266	0.0499489	-5.31964e-05	-0.151294	0.145901	0.121541	-0.583694	-0.401844	-0.238742	1.86936	1.75308	-0.00659817	0.0450029	-0.366753	-0.145892	-0.0413786	1.84951	1.9782	0.0627007	0.0400454
1.22	-0.129693	-0.0999399	-0.232757	0.981061	0.960477	-0.341497	0.639763	0.301448	0.0680946	-0.870972	0.29964	0.0519412	3.09509e-06	0.241462	-0.199755	-0.272924	-2.02624	-0.00693845	0.0499489	-5.31964e-05	-0.162253	0.140476	0.146002	-0.516098	-0.420937	-0.209834	1.84919	1.75841	-0.00659817	0.0450029	-0.381746	-0.144348	-0.0399667	1.79179	1.98108	0.0627007	0.0400454
1.23	-0.12809	-0.0947083	-0.239449	0.977248	0.957304	-0.341837	0.612562	0.304217	0.0924991	-0.926612	0.369416	0.0519412	3.09509e-06	0.32643	-0.202428	-0.249887	-2.08111	0.0250173	0.0499489	-5.31964e-05	-0.172281	0.132098	0.167723	-0.447136	-0.436635	-0.18069	1.83257	1.76343	-0.00659817	0.0450029	-0.400798	-0.144973	-0.0409143	1.74566	1.97758	0.0627007	0.0400454
1.24	-0.126831	-0.0873478	-0.243196	0.973527	0.955345	-0.342246	0.57771	0.301437	0.117998	-0.963871	0.432498	0.0519412	3.09509e-06	0.414349	-0.202614	-0.225143	-2.11789	0.0526551	0.0499489	-5.31964e-05	-0.180517	0.121016	0.186267	-0.379774	-0.447808	-0.153472	1.82299	1.76856	-0.00659817	0.0450029	-0.424202	-0.14818	-0.0437173	1.71298	1.96733	0.0627007	0.0400454
1.25	-0.126145	-0.0779809	-0.243747	0.970181	0.954789	-0.342667	0.535477	0.292538	0.142448	-0.981479	0.484295	0.0519412	3.09509e-06	0.503184	-0.201336	-0.201386	-2.13581	0.0761109	0.0499489	-5.31964e-05	-0.1862	0.107703	0.201613	-0.316913	-0.453684	-0.130203	1.82337	1.7746	-0.00659817	0.0450029	-0.45194	-0.154133	-0.0477087	1.69457	1.95086	0.0627007	0.0400454
1.26	-0.12622	-0.0669351	-0.241147	0.967451	0.955695	-0.343034	0.486526	0.277561	0.163962	-0.979841	0.520754	0.0519412	3.09509e-06	0.590559	-0.199577	-0.181148	-2.13459	0.0956083	0.0499489	-5.31964e-05	-0.188833	0.0927695	0.214002	-0.260917	-0.453969	-0.112331	1.83545	1.78269	-0.00659817	0.0450029	-0.483726	-0.162652	-0.0523396	1.69016	1.92971	0.0627007	0.0400454
1.27	-0.127122	-0.0547343	-0.235679	0.965522	0.958047	-0.343303	0.431714	0.2571	0.181011	-0.960586	0.538476	0.0519412	3.09509e-06	0.673957	-0.198116	-0.16648	-2.11443	0.111458	0.0499489	-5.31964e-05	-0.188247	0.0769047	0.223795	-0.213311	-0.448886	-0.100432	1.85961	1.79409	-0.00659817	0.0450029	-0.519079	-0.173195	-0.0574042	1.69846	1.90638	0.0627007	0.0400454
1.28	-0.128788	-0.0420549	-0.227781	0.964528	0.961791	-0.343466	0.371995	0.232206	0.192449	-0.926158	0.534916	0.0519412	3.09509e-06	0.750965	-0.19738	-0.158673	-2.07599	0.124046	0.0499489	-5.31964e-05	-0.184595	0.0608285	0.23139	-0.174743	-0.439128	-0.0941777	1.89484	1.80985	-0.00659817	0.0450029	-0.55738	-0.184962	-0.0631029	1.71743	1.88397	0.0627007	0.0400454
1.29	-0.131072	-0.0296439	-0.217959	0.964525	0.966827	-0.34355	0.308426	0.204255	0.197563	-0.879538	0.508698	0.0519412	3.09509e-06	0.819535	-0.197325	-0.158061	-2.02039	0.133799	0.0499489	-5.31964e-05	-0.178272	0.0452398	0.237198	-0.145153	-0.425753	-0.0925132	1.93914	1.83051	-0.00659817	0.0450029	-0.597907	-0.197052	-0.0699211	1.74465	1.86534	0.0627007	0.0400454
